<?xml version="1.0" encoding="UTF-8"?> <svg xmlns="http://www.w3.org/2000/svg" width="150" height="48" viewBox="0 0 150 48" fill="none"><path fill-rule="evenodd" clip-rule="evenodd" d="M21.8182 48C33.8841 44.7673 43.6365 36.2819 43.6365 22.9486C43.6365 16.4303 43.6365 9.02834 43.6365 2.11524C29.0913 -0.706436 14.5456 -0.703723 0 2.11524C0 9.02834 0 16.4303 0 22.9486C0 36.2819 9.75241 44.7668 21.8182 48Z" fill="#EC615C"></path><path fill-rule="evenodd" clip-rule="evenodd" d="M13.9257 15.7592H12.0097H10.3231V17.1266C11.1524 17.1266 12.0097 17.5937 12.0097 18.32V24.69V31.06C12.0097 31.7862 11.1524 32.2533 10.3231 32.2533V33.6208H12.0097H13.9257H15.8412H17.5278V32.2533C16.6985 32.2533 15.8412 31.7867 15.8412 31.06V24.69V18.32C15.8412 17.5937 16.6985 17.1266 17.5278 17.1266V15.7592H15.8412H13.9257ZM21.8178 12.6762L24.2632 10.4713C24.9221 9.87709 25.6849 9.58407 26.5721 9.58407H33.312V12.6495H27.3137C26.7222 12.6495 26.2135 12.8448 25.7744 13.2409L22.69 16.0219C22.4875 16.2046 22.2532 16.2946 21.9806 16.2946H21.6545C21.3819 16.2946 21.1476 16.2046 20.945 16.0219L17.8606 13.2409C17.4216 12.8448 16.9128 12.6495 16.3214 12.6495H10.3231V9.58407H17.0634C17.9506 9.58407 18.7135 9.87709 19.3723 10.4713L21.8178 12.6762ZM29.7103 15.7592H27.7948H26.1082V17.1266C26.9375 17.1266 27.7948 17.5937 27.7948 18.32V24.69V31.06C27.7948 31.7862 26.9375 32.2533 26.1082 32.2533V33.6208H27.7948H29.7103H31.6262H33.3129V32.2533C32.4836 32.2533 31.6262 31.7867 31.6262 31.06V24.69V18.32C31.6262 17.5937 32.4836 17.1266 33.3129 17.1266V15.7592H31.6262H29.7103Z" fill="#FEFEFE"></path><path d="M57.4689 12.7035C57.1215 11.656 56.7741 10.642 56.4268 9.66136C56.0906 8.66959 55.7601 7.71683 55.4351 6.80306C55.1101 5.8893 54.8076 5.03126 54.5275 4.22893H54.4098C54.4098 4.27351 54.3986 4.46294 54.3762 4.79725C54.3538 5.12041 54.3202 5.52714 54.2753 6.01745C54.2417 6.49662 54.2025 7.00922 54.1577 7.55525C54.1129 8.10127 54.068 8.62502 54.0232 9.12647C53.9896 9.61678 53.9616 10.0347 53.9392 10.3801C53.9168 10.7144 53.9056 10.9206 53.9056 10.9986C53.9056 11.344 54.0849 11.5167 54.4434 11.5167C54.5219 11.5167 54.6395 11.5167 54.7964 11.5167C54.9645 11.5056 55.0597 11.5 55.0821 11.5L55.1326 11.5836L54.9645 12.4695C54.9197 12.4695 54.7852 12.4639 54.5611 12.4528C54.337 12.4416 54.0961 12.4305 53.8383 12.4194C53.5806 12.4082 53.3621 12.4026 53.1828 12.4026C53.0259 12.4026 52.8579 12.4082 52.6786 12.4194C52.5105 12.4305 52.3424 12.4472 52.1743 12.4695C52.0175 12.4918 51.8886 12.5085 51.7877 12.5196C51.6869 12.5308 51.6365 12.5364 51.6365 12.5364L51.7373 11.617C52.0847 11.5836 52.3312 11.4777 52.4769 11.2994C52.6338 11.1211 52.7346 10.8091 52.7794 10.3634C52.8018 10.2074 52.8355 9.93994 52.8803 9.56106C52.9251 9.17104 52.9699 8.72531 53.0147 8.22385C53.0708 7.71125 53.1212 7.19309 53.166 6.66934C53.222 6.1456 53.2725 5.64415 53.3173 5.16498C53.3733 4.68581 53.4125 4.28465 53.4349 3.96149C53.4686 3.63833 53.4854 3.44332 53.4854 3.37646C53.4854 3.17588 53.4405 3.01987 53.3509 2.90844C53.2613 2.78586 53.1156 2.69114 52.9139 2.62428C52.7234 2.55742 52.4601 2.51284 52.1239 2.49056L52.0567 2.39027L52.1911 1.63808C52.2808 1.63808 52.4489 1.64366 52.6954 1.6548C52.9419 1.66594 53.1996 1.68266 53.4686 1.70494C53.7487 1.71609 53.9728 1.72166 54.1409 1.72166C54.3202 1.72166 54.5107 1.71609 54.7124 1.70494C54.914 1.6938 55.0933 1.68266 55.2502 1.67151C55.4183 1.66037 55.5303 1.6548 55.5864 1.6548C55.9001 2.70228 56.2027 3.67733 56.494 4.57995C56.7853 5.47143 57.0487 6.26261 57.284 6.9535C57.5193 7.63325 57.7098 8.18485 57.8555 8.6083C58.0011 9.02061 58.0852 9.27133 58.1076 9.36048H58.2084C58.2308 9.28248 58.3149 9.03175 58.4606 8.6083C58.6174 8.18485 58.8135 7.63325 59.0488 6.9535C59.2954 6.26261 59.5699 5.47143 59.8724 4.57995C60.175 3.68848 60.4943 2.72457 60.8305 1.68823C60.8977 1.68823 61.021 1.6938 61.2003 1.70494C61.3796 1.71609 61.57 1.72166 61.7717 1.72166C61.9846 1.72166 62.1695 1.72166 62.3264 1.72166C62.5057 1.72166 62.7298 1.71609 62.9987 1.70494C63.2789 1.68266 63.5254 1.66594 63.7383 1.6548C63.9512 1.63251 64.0744 1.62137 64.1081 1.62137L64.1585 1.68823L64.0576 2.47384C63.5758 2.51842 63.2396 2.60756 63.0492 2.74128C62.8587 2.87501 62.7634 3.08673 62.7634 3.37646C62.7634 3.49904 62.769 3.73305 62.7802 4.0785C62.8026 4.42394 62.8307 4.84182 62.8643 5.33213C62.8979 5.8113 62.9315 6.3239 62.9651 6.86993C63.0099 7.41595 63.0492 7.95641 63.0828 8.49129C63.1276 9.02618 63.1668 9.51649 63.2004 9.96223C63.2677 10.5863 63.3517 11.0041 63.4526 11.2159C63.5646 11.4164 63.7495 11.5167 64.0072 11.5167C64.1081 11.5167 64.2089 11.5112 64.3098 11.5C64.4106 11.4889 64.4666 11.4833 64.4778 11.4833L64.5283 11.5669L64.377 12.4528C64.3546 12.4528 64.2481 12.4472 64.0576 12.4361C63.8672 12.4249 63.6486 12.4138 63.4021 12.4026C63.1556 12.4026 62.9371 12.4026 62.7466 12.4026C62.5561 12.4026 62.3488 12.4082 62.1247 12.4194C61.9006 12.4305 61.6765 12.4472 61.4524 12.4695C61.2395 12.4918 61.0602 12.5085 60.9145 12.5196C60.7801 12.5308 60.7072 12.5364 60.696 12.5364L60.7969 11.617C61.133 11.5725 61.374 11.4889 61.5196 11.3663C61.6765 11.2326 61.7549 11.0376 61.7549 10.7813C61.7549 10.6921 61.7437 10.486 61.7213 10.1628C61.6989 9.82851 61.6709 9.43291 61.6373 8.97603C61.6037 8.50801 61.5644 8.0177 61.5196 7.5051C61.486 6.9925 61.4524 6.50776 61.4188 6.05088C61.3852 5.58286 61.3515 5.18727 61.3179 4.86411C61.2955 4.5298 61.2843 4.31808 61.2843 4.22893H61.1667C60.9538 4.81953 60.7296 5.44357 60.4943 6.10103C60.259 6.75849 60.0125 7.44381 59.7548 8.15699C59.4971 8.87017 59.2393 9.59449 58.9816 10.33C58.7239 11.0654 58.4662 11.812 58.2084 12.5698L57.4689 12.7035Z" fill="white"></path><path d="M66.1576 12.6032L66.2584 11.7507C66.5946 11.6727 66.8355 11.5502 66.9812 11.383C67.1269 11.2047 67.1997 10.9707 67.1997 10.681V6.71949C67.1997 6.39633 67.1493 6.16232 67.0484 6.01745C66.9476 5.87259 66.7795 5.80016 66.5442 5.80016C66.4657 5.80016 66.3761 5.8113 66.2753 5.83359C66.1856 5.85587 66.1408 5.86702 66.1408 5.86702L66.208 5.09812C66.5442 5.0424 66.8747 4.98669 67.1997 4.93097C67.5247 4.87525 67.8216 4.81953 68.0905 4.76382C68.3595 4.7081 68.5724 4.66353 68.7292 4.6301C68.8973 4.59667 68.9814 4.57995 68.9814 4.57995L69.099 4.81396C69.043 4.9254 68.987 5.16498 68.9309 5.53271C68.8861 5.90045 68.8469 6.35733 68.8133 6.90336C68.7797 7.43824 68.7516 8.03441 68.7292 8.69188C68.718 9.33819 68.7124 10.0124 68.7124 10.7144C68.7124 11.0041 68.7516 11.2159 68.8301 11.3496C68.9197 11.4833 69.0654 11.5502 69.2671 11.5502C69.3567 11.5502 69.4688 11.5446 69.6033 11.5335C69.7377 11.5223 69.805 11.5167 69.805 11.5167L69.8386 11.6003L69.6873 12.4528C69.6873 12.4528 69.6313 12.4472 69.5192 12.4361C69.4184 12.4361 69.2839 12.4305 69.1158 12.4194C68.9477 12.4194 68.7685 12.4138 68.578 12.4026C68.3875 12.4026 68.2082 12.4026 68.0401 12.4026C67.7824 12.4026 67.5078 12.4194 67.2165 12.4528C66.9252 12.4862 66.673 12.5196 66.4601 12.5531C66.2584 12.5865 66.1576 12.6032 66.1576 12.6032ZM67.8384 2.85829C67.5135 2.85829 67.2669 2.758 67.0989 2.55742C66.942 2.35684 66.8635 2.12282 66.8635 1.85538C66.8635 1.53222 66.97 1.25921 67.1829 1.03634C67.3958 0.813471 67.6703 0.702036 68.0065 0.702036C68.3202 0.702036 68.5612 0.802327 68.7292 1.00291C68.8973 1.19235 68.9814 1.42636 68.9814 1.70494C68.9814 2.0281 68.8749 2.30112 68.662 2.52399C68.4603 2.74686 68.1858 2.85829 67.8384 2.85829Z" fill="white"></path><path d="M71.2523 12.5865L71.3531 11.734C71.6445 11.6672 71.8518 11.5725 71.975 11.4499C72.0983 11.3162 72.1711 11.149 72.1935 10.9484C72.2272 10.7367 72.244 10.4693 72.244 10.1461V2.15625C72.244 1.86652 72.2159 1.66037 72.1599 1.53779C72.1151 1.40407 72.0143 1.3205 71.8574 1.28707C71.7117 1.25364 71.4932 1.24806 71.2019 1.27035L71.1346 1.22021L71.2187 0.501455C71.7005 0.445738 72.1823 0.378877 72.6642 0.300873C73.1572 0.211725 73.6446 0.111434 74.1265 0L74.2273 0.267443C74.1825 0.378877 74.1321 0.646319 74.076 1.06977C74.0312 1.48208 73.9864 2.02253 73.9416 2.69114C73.908 3.35974 73.8743 4.12307 73.8407 4.98111C73.8071 5.82801 73.7791 6.74178 73.7567 7.7224C73.7455 8.69188 73.7399 9.68921 73.7399 10.7144C73.7399 11.0153 73.7791 11.2326 73.8575 11.3663C73.9472 11.5 74.0928 11.5669 74.2945 11.5669L74.866 11.5335L74.8996 11.617L74.7484 12.4528C74.5131 12.4416 74.2329 12.4305 73.908 12.4194C73.583 12.4082 73.3029 12.4026 73.0676 12.4026C72.8547 12.4026 72.5801 12.4194 72.244 12.4528C71.919 12.4862 71.5884 12.5308 71.2523 12.5865Z" fill="white"></path><path d="M79.8232 12.6032C79.0837 12.6032 78.4394 12.4472 77.8903 12.1352C77.3412 11.8232 76.9154 11.3886 76.6129 10.8314C76.3103 10.2631 76.1591 9.60007 76.1591 8.84231C76.1591 8.25171 76.2599 7.70011 76.4616 7.18751C76.6633 6.67492 76.9378 6.22361 77.2852 5.83359C77.6438 5.44357 78.0528 5.13712 78.5122 4.91425C78.9716 4.69138 79.4646 4.57995 79.9913 4.57995C81.7618 4.57995 82.647 5.44914 82.647 7.18751C82.647 7.34352 82.6302 7.5051 82.5966 7.67225C82.5741 7.8394 82.5517 7.97312 82.5293 8.07342L82.3276 8.25728H77.8231C77.8231 9.14876 78.0023 9.85079 78.3609 10.3634C78.7195 10.876 79.2237 11.1657 79.8736 11.2326C80.5348 11.2994 81.3079 11.1323 82.1932 10.7311L82.294 10.7813L82.5293 11.4164C82.294 11.5836 82.0139 11.7619 81.6889 11.9513C81.3752 12.1296 81.0502 12.2801 80.7141 12.4026C80.3891 12.5364 80.0921 12.6032 79.8232 12.6032ZM77.8567 7.5051L80.5628 7.37138C80.7084 7.34909 80.8037 7.31566 80.8485 7.27109C80.9045 7.21537 80.9326 7.10951 80.9326 6.9535C80.9326 6.51891 80.8261 6.19018 80.6132 5.96731C80.4003 5.74444 80.0921 5.633 79.6888 5.633C79.2069 5.633 78.7979 5.80016 78.4618 6.13446C78.1368 6.45762 77.9351 6.9145 77.8567 7.5051Z" fill="white"></path><path d="M86.6322 12.6032C86.2176 12.6032 85.8478 12.5698 85.5229 12.5029C85.2091 12.4361 84.9626 12.3692 84.7833 12.3023C84.6152 12.2355 84.5312 12.2021 84.5312 12.2021L84.464 12.0683C84.4864 11.9235 84.5088 11.7173 84.5312 11.4499C84.5648 11.1713 84.5928 10.8816 84.6152 10.5807C84.6488 10.2798 84.6657 10.0347 84.6657 9.84522L85.4052 9.76165C85.4164 10.4191 85.5453 10.8927 85.7918 11.1824C86.0383 11.4722 86.4361 11.617 86.9852 11.617C87.3549 11.617 87.6687 11.5335 87.9264 11.3663C88.1841 11.1991 88.313 10.993 88.313 10.7478C88.313 10.5807 88.2626 10.4247 88.1617 10.2798C88.0609 10.135 87.876 9.97894 87.6071 9.81179C87.3493 9.6335 86.974 9.42734 86.4809 9.19333C85.831 8.87017 85.3548 8.53587 85.0522 8.19042C84.7609 7.84498 84.6152 7.46053 84.6152 7.03708C84.6152 6.55791 84.7553 6.13446 85.0354 5.76673C85.3156 5.39899 85.7022 5.10926 86.1952 4.89754C86.6994 4.68581 87.2597 4.57995 87.876 4.57995C88.3802 4.57995 88.8004 4.6301 89.1366 4.73039C89.484 4.81953 89.6577 4.86411 89.6577 4.86411L89.7081 4.98111C89.7081 4.98111 89.6857 5.0814 89.6408 5.28199C89.6072 5.48257 89.5624 5.73887 89.5064 6.05088C89.4616 6.3629 89.4223 6.70277 89.3887 7.07051L88.6156 7.13737C88.6156 7.13737 88.6212 7.08722 88.6324 6.98693C88.6436 6.88664 88.6492 6.80306 88.6492 6.7362C88.6492 6.33504 88.5427 6.04531 88.3298 5.86702C88.1281 5.67758 87.8088 5.58286 87.3718 5.58286C87.0244 5.58286 86.733 5.66643 86.4977 5.83359C86.2624 5.98959 86.1448 6.1846 86.1448 6.41862C86.1448 6.66377 86.2456 6.89221 86.4473 7.10394C86.6602 7.30452 87.002 7.52739 87.4726 7.77254C88.1001 8.07342 88.5875 8.352 88.9349 8.6083C89.2823 8.85346 89.5232 9.09861 89.6577 9.34377C89.8033 9.58892 89.8762 9.86194 89.8762 10.1628C89.8762 10.6085 89.7305 11.0209 89.4391 11.3997C89.1478 11.7675 88.7556 12.0628 88.2626 12.2856C87.7695 12.4974 87.2261 12.6032 86.6322 12.6032Z" fill="white"></path><path d="M94.5534 12.6032C93.7802 12.6032 93.22 12.4472 92.8726 12.1352C92.5364 11.812 92.3683 11.2883 92.3683 10.564V6.6192C92.3683 6.30718 92.3011 6.08989 92.1666 5.96731C92.0434 5.84473 91.7969 5.77787 91.4271 5.76673L91.3262 5.64972L91.4103 5.01454C91.724 4.85854 92.0266 4.69138 92.3179 4.51309C92.6093 4.32365 92.867 4.14536 93.0911 3.97821C93.3264 3.79991 93.5057 3.65505 93.629 3.54361C93.7634 3.43218 93.8306 3.37646 93.8306 3.37646L94.234 3.54361C94.234 3.54361 94.2172 3.66062 94.1836 3.89463C94.15 4.12864 94.1108 4.46294 94.066 4.89754L96.3182 4.84739L96.3855 4.89754L96.2174 5.90045L93.9987 5.8503C93.9651 6.35176 93.9371 6.93121 93.9147 7.58868C93.8923 8.24614 93.8811 8.97603 93.8811 9.77836C93.8811 10.3021 93.9707 10.681 94.15 10.915C94.3405 11.1379 94.6542 11.2493 95.0913 11.2493C95.349 11.2493 95.5899 11.2047 95.814 11.1156C96.0493 11.0153 96.167 10.9651 96.167 10.9651L96.3519 11.4499C96.3519 11.4499 96.279 11.5112 96.1334 11.6337C95.9989 11.7452 95.8252 11.8789 95.6123 12.0349C95.4106 12.1798 95.2089 12.3079 95.0072 12.4194C94.8167 12.5419 94.6654 12.6032 94.5534 12.6032Z" fill="white"></path><path d="M101.126 12.6032C100.454 12.6032 99.8601 12.4472 99.3446 12.1352C98.8404 11.8232 98.4426 11.383 98.1512 10.8147C97.8711 10.2464 97.731 9.58892 97.731 8.84231C97.731 8.0177 97.8991 7.2878 98.2353 6.65263C98.5827 6.00631 99.0589 5.49928 99.664 5.13155C100.269 4.76382 100.947 4.57995 101.698 4.57995C102.381 4.57995 102.975 4.73596 103.479 5.04797C103.995 5.35999 104.393 5.80016 104.673 6.36847C104.953 6.92564 105.093 7.58311 105.093 8.34086C105.093 9.15433 104.919 9.88422 104.572 10.5305C104.236 11.1769 103.765 11.6839 103.16 12.0516C102.566 12.4194 101.888 12.6032 101.126 12.6032ZM101.53 11.5836C102.09 11.5836 102.527 11.3607 102.841 10.915C103.166 10.4581 103.328 9.82293 103.328 9.00946C103.328 8.32971 103.238 7.74468 103.059 7.25437C102.891 6.75292 102.65 6.36847 102.336 6.10103C102.034 5.83359 101.67 5.69987 101.244 5.69987C100.695 5.69987 100.258 5.92831 99.9329 6.38519C99.6191 6.84207 99.4623 7.47724 99.4623 8.29071C99.4623 8.98161 99.5463 9.57221 99.7144 10.0625C99.8825 10.5528 100.123 10.9317 100.437 11.1991C100.751 11.4554 101.115 11.5836 101.53 11.5836Z" fill="white"></path><path d="M111.612 11.734C111.915 11.656 112.133 11.539 112.268 11.383C112.402 11.2159 112.469 10.993 112.469 10.7144L112.537 7.58868C112.537 7.06494 112.43 6.66934 112.217 6.4019C112.004 6.12332 111.691 5.98402 111.276 5.98402C111.041 5.98402 110.8 6.03417 110.553 6.13446C110.318 6.22361 110.105 6.32947 109.915 6.45205C109.724 6.56348 109.578 6.6582 109.478 6.7362C109.466 7.03708 109.45 7.38252 109.427 7.77254C109.416 8.16256 109.399 8.55258 109.377 8.9426C109.354 9.33262 109.337 9.68921 109.326 10.0124C109.315 10.3244 109.309 10.5528 109.309 10.6977C109.309 11.0097 109.354 11.2326 109.444 11.3663C109.534 11.4889 109.679 11.5502 109.881 11.5502C109.971 11.5502 110.077 11.5446 110.2 11.5335C110.335 11.5223 110.402 11.5167 110.402 11.5167L110.436 11.5836L110.284 12.4528C110.284 12.4528 110.189 12.4472 109.999 12.4361C109.819 12.4249 109.601 12.4138 109.343 12.4026C109.097 12.4026 108.861 12.4026 108.637 12.4026C108.379 12.4026 108.11 12.4082 107.83 12.4194C107.55 12.4416 107.309 12.4584 107.108 12.4695C106.917 12.4918 106.822 12.5029 106.822 12.5029L106.94 11.6505C107.264 11.6059 107.489 11.5167 107.612 11.383C107.746 11.2382 107.814 11.0097 107.814 10.6977V6.85321C107.814 6.47433 107.752 6.21246 107.629 6.0676C107.517 5.92273 107.309 5.8503 107.007 5.8503H106.805L106.738 5.76673L106.805 5.0814C107.253 5.0034 107.679 4.93097 108.082 4.86411C108.497 4.7861 108.833 4.71924 109.091 4.66353C109.36 4.59667 109.494 4.56324 109.494 4.56324L109.612 4.71367C109.612 4.71367 109.584 4.83068 109.528 5.06469C109.483 5.28756 109.45 5.54386 109.427 5.83359L109.478 5.90045C109.59 5.8113 109.752 5.69429 109.965 5.54943C110.178 5.39342 110.402 5.24298 110.637 5.09812C110.873 4.95326 111.097 4.83068 111.31 4.73039C111.523 4.6301 111.691 4.57995 111.814 4.57995C112.565 4.57995 113.153 4.77496 113.579 5.16498C114.004 5.54386 114.217 6.0676 114.217 6.7362C114.217 6.89221 114.201 7.14294 114.167 7.48839C114.145 7.82269 114.117 8.19599 114.083 8.6083C114.049 9.02061 114.016 9.4162 113.982 9.79508C113.96 10.1628 113.948 10.4581 113.948 10.681C113.948 10.993 113.993 11.2214 114.083 11.3663C114.173 11.5 114.318 11.5669 114.52 11.5669C114.61 11.5669 114.722 11.5613 114.856 11.5502C115.002 11.539 115.075 11.5335 115.075 11.5335L115.108 11.6003L114.957 12.4528C114.957 12.4528 114.901 12.4472 114.789 12.4361C114.688 12.4361 114.548 12.4305 114.369 12.4194C114.201 12.4194 114.021 12.4138 113.831 12.4026C113.652 12.4026 113.483 12.4026 113.327 12.4026C113.147 12.4026 112.957 12.4082 112.755 12.4194C112.553 12.4416 112.357 12.4639 112.167 12.4862C111.976 12.5085 111.819 12.5252 111.696 12.5364C111.584 12.5586 111.528 12.5698 111.528 12.5698L111.612 11.734Z" fill="white"></path><path d="M120.163 12.6032C119.423 12.6032 118.779 12.4472 118.23 12.1352C117.681 11.8232 117.255 11.3886 116.952 10.8314C116.65 10.2631 116.498 9.60007 116.498 8.84231C116.498 8.25171 116.599 7.70011 116.801 7.18751C117.003 6.67492 117.277 6.22361 117.625 5.83359C117.983 5.44357 118.392 5.13712 118.852 4.91425C119.311 4.69138 119.804 4.57995 120.331 4.57995C122.101 4.57995 122.986 5.44914 122.986 7.18751C122.986 7.34352 122.97 7.5051 122.936 7.67225C122.914 7.8394 122.891 7.97312 122.869 8.07342L122.667 8.25728H118.162C118.162 9.14876 118.342 9.85079 118.7 10.3634C119.059 10.876 119.563 11.1657 120.213 11.2326C120.874 11.2994 121.647 11.1323 122.533 10.7311L122.633 10.7813L122.869 11.4164C122.633 11.5836 122.353 11.7619 122.028 11.9513C121.715 12.1296 121.39 12.2801 121.053 12.4026C120.728 12.5364 120.432 12.6032 120.163 12.6032ZM118.196 7.5051L120.902 7.37138C121.048 7.34909 121.143 7.31566 121.188 7.27109C121.244 7.21537 121.272 7.10951 121.272 6.9535C121.272 6.51891 121.165 6.19018 120.953 5.96731C120.74 5.74444 120.432 5.633 120.028 5.633C119.546 5.633 119.137 5.80016 118.801 6.13446C118.476 6.45762 118.274 6.9145 118.196 7.5051Z" fill="white"></path><path d="M51.8046 30.2849L51.9054 29.3823C52.4209 29.282 52.7626 29.1371 52.9307 28.9477C53.11 28.7471 53.1996 28.4128 53.1996 27.9448L53.2164 21.1919C53.2164 20.8353 53.1716 20.5957 53.082 20.4731C53.0035 20.3505 52.8411 20.2892 52.5945 20.2892C52.5161 20.2892 52.4096 20.2948 52.2752 20.306C52.1519 20.306 52.0399 20.3115 51.939 20.3227L51.8886 20.2224L52.0063 19.3866C52.3312 19.3866 52.6954 19.3922 53.0988 19.4033C53.5134 19.4145 53.8663 19.42 54.1577 19.42C54.3818 19.42 54.6899 19.4089 55.0821 19.3866C55.4743 19.3532 55.8777 19.3198 56.2923 19.2863L56.2083 20.1889C55.7601 20.2447 55.4575 20.3338 55.3006 20.4564C55.155 20.579 55.0709 20.8018 55.0485 21.125C55.0149 21.7045 54.9813 22.3173 54.9477 22.9637C54.9253 23.61 54.9028 24.2563 54.8804 24.9026C54.8692 25.5378 54.858 26.134 54.8468 26.6911C54.8356 27.2372 54.83 27.6996 54.83 28.0785C54.83 28.5242 54.8748 28.8251 54.9645 28.9811C55.0653 29.1371 55.2502 29.2151 55.5191 29.2151C55.6648 29.2151 55.8105 29.2096 55.9562 29.1984C56.113 29.1873 56.2419 29.1761 56.3427 29.165L56.3932 29.2486L56.2419 30.1512C56.0178 30.14 55.7601 30.1289 55.4687 30.1177C55.1774 30.1177 54.8916 30.1122 54.6115 30.101C54.3314 30.101 54.1017 30.101 53.9224 30.101C53.6646 30.101 53.3397 30.1177 52.9475 30.1512C52.5553 30.1846 52.1743 30.2292 51.8046 30.2849Z" fill="white"></path><path d="M62.9226 29.4324C63.2251 29.3544 63.4436 29.2374 63.5781 29.0814C63.7126 28.9143 63.7798 28.6914 63.7798 28.4128L63.847 25.2871C63.847 24.7633 63.7406 24.3677 63.5277 24.1003C63.3148 23.8217 63.001 23.6824 62.5864 23.6824C62.3511 23.6824 62.1102 23.7326 61.8637 23.8328C61.6284 23.922 61.4154 24.0279 61.225 24.1504C61.0345 24.2619 60.8888 24.3566 60.7879 24.4346C60.7767 24.7355 60.7599 25.0809 60.7375 25.4709C60.7263 25.861 60.7095 26.251 60.6871 26.641C60.6647 27.031 60.6479 27.3876 60.6367 27.7108C60.6255 28.0228 60.6199 28.2512 60.6199 28.3961C60.6199 28.7081 60.6647 28.931 60.7543 29.0647C60.844 29.1873 60.9896 29.2486 61.1913 29.2486C61.281 29.2486 61.3874 29.243 61.5107 29.2318C61.6452 29.2207 61.7124 29.2151 61.7124 29.2151L61.746 29.282L61.5947 30.1512C61.5947 30.1512 61.4995 30.1456 61.309 30.1345C61.1297 30.1233 60.9112 30.1122 60.6535 30.101C60.407 30.101 60.1716 30.101 59.9475 30.101C59.6898 30.101 59.4209 30.1066 59.1408 30.1177C58.8606 30.14 58.6197 30.1567 58.418 30.1679C58.2275 30.1902 58.1323 30.2013 58.1323 30.2013L58.2499 29.3488C58.5749 29.3043 58.799 29.2151 58.9222 29.0814C59.0567 28.9365 59.1239 28.7081 59.1239 28.3961V24.5516C59.1239 24.1727 59.0623 23.9109 58.9391 23.766C58.827 23.6211 58.6197 23.5487 58.3172 23.5487H58.1155L58.0482 23.4651L58.1155 22.7798C58.5637 22.7018 58.9895 22.6294 59.3929 22.5625C59.8075 22.4845 60.1436 22.4176 60.4014 22.3619C60.6703 22.2951 60.8048 22.2616 60.8048 22.2616L60.9224 22.4121C60.9224 22.4121 60.8944 22.5291 60.8384 22.7631C60.7935 22.9859 60.7599 23.2422 60.7375 23.532L60.7879 23.5988C60.9 23.5097 61.0625 23.3927 61.2754 23.2478C61.4883 23.0918 61.7124 22.9414 61.9477 22.7965C62.183 22.6516 62.4071 22.5291 62.62 22.4288C62.8329 22.3285 63.001 22.2783 63.1243 22.2783C63.875 22.2783 64.4633 22.4734 64.8891 22.8634C65.3149 23.2422 65.5278 23.766 65.5278 24.4346C65.5278 24.5906 65.511 24.8413 65.4774 25.1868C65.455 25.5211 65.427 25.8944 65.3934 26.3067C65.3597 26.719 65.3261 27.1146 65.2925 27.4935C65.2701 27.8612 65.2589 28.1565 65.2589 28.3794C65.2589 28.6914 65.3037 28.9198 65.3934 29.0647C65.483 29.1984 65.6287 29.2653 65.8304 29.2653C65.92 29.2653 66.0321 29.2597 66.1665 29.2486C66.3122 29.2374 66.385 29.2318 66.385 29.2318L66.4187 29.2987L66.2674 30.1512C66.2674 30.1512 66.2114 30.1456 66.0993 30.1345C65.9984 30.1345 65.8584 30.1289 65.6791 30.1177C65.511 30.1177 65.3317 30.1122 65.1412 30.101C64.962 30.101 64.7939 30.101 64.637 30.101C64.4577 30.101 64.2672 30.1066 64.0655 30.1177C63.8638 30.14 63.6677 30.1623 63.4772 30.1846C63.2867 30.2069 63.1299 30.2236 63.0066 30.2347C62.8946 30.257 62.8385 30.2682 62.8385 30.2682L62.9226 29.4324Z" fill="white"></path><path d="M70.7503 30.3016C69.9771 30.3016 69.4168 30.1456 69.0695 29.8336C68.7333 29.5104 68.5652 28.9867 68.5652 28.2624V24.3176C68.5652 24.0056 68.498 23.7883 68.3635 23.6657C68.2403 23.5431 67.9938 23.4763 67.624 23.4651L67.5231 23.3481L67.6072 22.7129C67.9209 22.5569 68.2235 22.3898 68.5148 22.2115C68.8061 22.022 69.0639 21.8437 69.288 21.6766C69.5233 21.4983 69.7026 21.3534 69.8258 21.242C69.9603 21.1306 70.0275 21.0749 70.0275 21.0749L70.4309 21.242C70.4309 21.242 70.4141 21.359 70.3805 21.593C70.3469 21.827 70.3077 22.1613 70.2628 22.5959L72.5151 22.5458L72.5824 22.5959L72.4143 23.5988L70.1956 23.5487C70.162 24.0501 70.134 24.6296 70.1116 25.2871C70.0892 25.9445 70.078 26.6744 70.078 27.4767C70.078 28.0005 70.1676 28.3794 70.3469 28.6134C70.5374 28.8362 70.8511 28.9477 71.2881 28.9477C71.5459 28.9477 71.7868 28.9031 72.0109 28.814C72.2462 28.7137 72.3639 28.6635 72.3639 28.6635L72.5487 29.1483C72.5487 29.1483 72.4759 29.2096 72.3302 29.3321C72.1958 29.4436 72.0221 29.5773 71.8092 29.7333C71.6075 29.8782 71.4058 30.0063 71.2041 30.1177C71.0136 30.2403 70.8623 30.3016 70.7503 30.3016Z" fill="white"></path><path d="M77.5417 30.3016C76.8021 30.3016 76.1578 30.1456 75.6087 29.8336C75.0597 29.5216 74.6339 29.087 74.3313 28.5298C74.0288 27.9615 73.8775 27.2985 73.8775 26.5407C73.8775 25.9501 73.9783 25.3985 74.18 24.8859C74.3817 24.3733 74.6563 23.922 75.0036 23.532C75.3622 23.142 75.7712 22.8355 76.2306 22.6126C76.69 22.3898 77.1831 22.2783 77.7097 22.2783C79.4802 22.2783 80.3654 23.1475 80.3654 24.8859C80.3654 25.0419 80.3486 25.2035 80.315 25.3706C80.2926 25.5378 80.2702 25.6715 80.2478 25.7718L80.0461 25.9557H75.5415C75.5415 26.8471 75.7208 27.5492 76.0794 28.0618C76.4379 28.5744 76.9422 28.8641 77.5921 28.931C78.2532 28.9978 79.0264 28.8307 79.9116 28.4295L80.0124 28.4797L80.2478 29.1148C80.0124 29.282 79.7323 29.4603 79.4074 29.6497C79.0936 29.828 78.7686 29.9785 78.4325 30.101C78.1075 30.2347 77.8106 30.3016 77.5417 30.3016ZM75.5751 25.2035L78.2812 25.0698C78.4269 25.0475 78.5221 25.0141 78.5669 24.9695C78.623 24.9138 78.651 24.8079 78.651 24.6519C78.651 24.2173 78.5445 23.8886 78.3316 23.6657C78.1187 23.4428 77.8106 23.3314 77.4072 23.3314C76.9254 23.3314 76.5164 23.4985 76.1802 23.8328C75.8552 24.156 75.6535 24.6129 75.5751 25.2035Z" fill="white"></path><path d="M82.3673 29.3488C82.7034 29.3154 82.9275 29.2151 83.0396 29.048C83.1517 28.8697 83.2077 28.5409 83.2077 28.0618V24.5516C83.2077 24.1727 83.1573 23.9109 83.0564 23.766C82.9556 23.61 82.7819 23.532 82.5354 23.532C82.4569 23.532 82.3785 23.5431 82.3 23.5654C82.2328 23.5766 82.1992 23.5821 82.1992 23.5821L82.1152 23.4651L82.1824 22.7965C82.597 22.7185 83.0004 22.6405 83.3926 22.5625C83.796 22.4845 84.1321 22.4176 84.4011 22.3619C84.67 22.2951 84.8045 22.2616 84.8045 22.2616L84.9389 22.3786C84.9389 22.3786 84.9221 22.4678 84.8885 22.6461C84.8661 22.8132 84.8437 23.025 84.8213 23.2812C84.7989 23.5264 84.7876 23.7771 84.7876 24.0334L84.8549 24.0836C85.2135 23.571 85.6056 23.1587 86.0314 22.8467C86.4685 22.5235 86.8662 22.3619 87.2248 22.3619C87.4041 22.3619 87.5386 22.3731 87.6282 22.3953C87.7291 22.4176 87.7795 22.4288 87.7795 22.4288L87.8299 22.5291C87.8299 22.5291 87.8187 22.6126 87.7963 22.7798C87.7739 22.9358 87.7403 23.1475 87.6954 23.415C87.6618 23.6824 87.6282 23.9777 87.5946 24.3009C87.5722 24.6129 87.5498 24.9138 87.5274 25.2035L86.687 25.2536C86.687 24.7633 86.6589 24.4402 86.6029 24.2842C86.5469 24.1281 86.418 24.0501 86.2163 24.0501C86.0034 24.0501 85.7737 24.1337 85.5272 24.3009C85.2919 24.468 85.0678 24.702 84.8549 25.0029C84.8549 25.0029 84.8493 25.1032 84.8381 25.3038C84.8269 25.5044 84.8157 25.7607 84.8045 26.0727C84.7932 26.3736 84.7764 26.6856 84.754 27.0087C84.7428 27.3319 84.7316 27.616 84.7204 27.8612C84.7092 28.1064 84.7036 28.2624 84.7036 28.3292C84.7036 28.6635 84.754 28.8975 84.8549 29.0313C84.9669 29.1538 85.163 29.2151 85.4432 29.2151C85.5888 29.2151 85.7569 29.2096 85.9474 29.1984C86.1379 29.1761 86.2331 29.165 86.2331 29.165L86.2668 29.2486L86.0987 30.1512C86.0987 30.1512 86.0314 30.1456 85.897 30.1345C85.7737 30.1345 85.6112 30.1289 85.4095 30.1177C85.2078 30.1177 84.9949 30.1122 84.7708 30.101C84.5579 30.101 84.3618 30.101 84.1826 30.101C83.8464 30.101 83.5326 30.1066 83.2413 30.1177C82.95 30.1289 82.7146 30.14 82.5354 30.1512C82.3561 30.1623 82.2664 30.1679 82.2664 30.1679L82.3673 29.3488Z" fill="white"></path><path d="M94.1075 29.4324C94.41 29.3544 94.6285 29.2374 94.763 29.0814C94.8974 28.9143 94.9647 28.6914 94.9647 28.4128L95.0319 25.2871C95.0319 24.7633 94.9254 24.3677 94.7125 24.1003C94.4996 23.8217 94.1859 23.6824 93.7713 23.6824C93.536 23.6824 93.2951 23.7326 93.0485 23.8328C92.8132 23.922 92.6003 24.0279 92.4098 24.1504C92.2193 24.2619 92.0737 24.3566 91.9728 24.4346C91.9616 24.7355 91.9448 25.0809 91.9224 25.4709C91.9112 25.861 91.8944 26.251 91.872 26.641C91.8496 27.031 91.8328 27.3876 91.8216 27.7108C91.8104 28.0228 91.8048 28.2512 91.8048 28.3961C91.8048 28.7081 91.8496 28.931 91.9392 29.0647C92.0289 29.1873 92.1745 29.2486 92.3762 29.2486C92.4659 29.2486 92.5723 29.243 92.6956 29.2318C92.83 29.2207 92.8973 29.2151 92.8973 29.2151L92.9309 29.282L92.7796 30.1512C92.7796 30.1512 92.6844 30.1456 92.4939 30.1345C92.3146 30.1233 92.0961 30.1122 91.8384 30.101C91.5919 30.101 91.3565 30.101 91.1324 30.101C90.8747 30.101 90.6058 30.1066 90.3256 30.1177C90.0455 30.14 89.8046 30.1567 89.6029 30.1679C89.4124 30.1902 89.3172 30.2013 89.3172 30.2013L89.4348 29.3488C89.7598 29.3043 89.9839 29.2151 90.1071 29.0814C90.2416 28.9365 90.3088 28.7081 90.3088 28.3961V24.5516C90.3088 24.1727 90.2472 23.9109 90.1239 23.766C90.0119 23.6211 89.8046 23.5487 89.502 23.5487H89.3003L89.2331 23.4651L89.3003 22.7798C89.7486 22.7018 90.1744 22.6294 90.5778 22.5625C90.9924 22.4845 91.3285 22.4176 91.5862 22.3619C91.8552 22.2951 91.9896 22.2616 91.9896 22.2616L92.1073 22.4121C92.1073 22.4121 92.0793 22.5291 92.0233 22.7631C91.9784 22.9859 91.9448 23.2422 91.9224 23.532L91.9728 23.5988C92.0849 23.5097 92.2474 23.3927 92.4603 23.2478C92.6732 23.0918 92.8973 22.9414 93.1326 22.7965C93.3679 22.6516 93.592 22.5291 93.8049 22.4288C94.0178 22.3285 94.1859 22.2783 94.3092 22.2783C95.0599 22.2783 95.6482 22.4734 96.074 22.8634C96.4998 23.2422 96.7127 23.766 96.7127 24.4346C96.7127 24.5906 96.6959 24.8413 96.6623 25.1868C96.6399 25.5211 96.6119 25.8944 96.5782 26.3067C96.5446 26.719 96.511 27.1146 96.4774 27.4935C96.455 27.8612 96.4438 28.1565 96.4438 28.3794C96.4438 28.6914 96.4886 28.9198 96.5782 29.0647C96.6679 29.1984 96.8136 29.2653 97.0153 29.2653C97.1049 29.2653 97.2169 29.2597 97.3514 29.2486C97.4971 29.2374 97.5699 29.2318 97.5699 29.2318L97.6035 29.2987L97.4523 30.1512C97.4523 30.1512 97.3962 30.1456 97.2842 30.1345C97.1833 30.1345 97.0433 30.1289 96.864 30.1177C96.6959 30.1177 96.5166 30.1122 96.3261 30.101C96.1468 30.101 95.9788 30.101 95.8219 30.101C95.6426 30.101 95.4521 30.1066 95.2504 30.1177C95.0487 30.14 94.8526 30.1623 94.6621 30.1846C94.4716 30.2069 94.3148 30.2236 94.1915 30.2347C94.0794 30.257 94.0234 30.2682 94.0234 30.2682L94.1075 29.4324Z" fill="white"></path><path d="M104.809 30.3016C104.339 30.3016 103.969 30.1902 103.7 29.9673C103.431 29.7444 103.274 29.4157 103.229 28.9811L103.129 28.9477C102.882 29.1928 102.635 29.4157 102.389 29.6163C102.154 29.8057 101.941 29.9562 101.75 30.0676C101.56 30.179 101.403 30.2347 101.28 30.2347C100.854 30.2347 100.473 30.14 100.137 29.9506C99.8005 29.75 99.5372 29.4826 99.3467 29.1483C99.1562 28.814 99.061 28.4351 99.061 28.0116C99.061 27.6773 99.145 27.3876 99.3131 27.1424C99.4812 26.8862 99.7053 26.719 99.9854 26.641L103.196 25.822L103.213 25.2369C103.213 24.7243 103.084 24.3232 102.826 24.0334C102.579 23.7326 102.221 23.5821 101.75 23.5821C101.437 23.5821 101.1 23.6601 100.742 23.8161C100.394 23.961 100.064 24.156 99.7501 24.4012L99.6493 24.3343L99.3971 23.4985C99.7109 23.3203 100.058 23.1364 100.439 22.9469C100.82 22.7575 101.179 22.6015 101.515 22.4789C101.862 22.3452 102.126 22.2783 102.305 22.2783C102.865 22.2783 103.33 22.3731 103.7 22.5625C104.081 22.7408 104.367 22.9971 104.557 23.3314C104.748 23.6546 104.843 24.039 104.843 24.4847C104.843 24.6296 104.826 24.858 104.793 25.1701C104.759 25.4821 104.72 25.8275 104.675 26.2064C104.63 26.5853 104.591 26.953 104.557 27.3096C104.535 27.655 104.524 27.9336 104.524 28.1454C104.524 28.3794 104.58 28.5632 104.692 28.697C104.815 28.8195 104.977 28.8808 105.179 28.8808C105.347 28.8808 105.515 28.8418 105.683 28.7638C105.863 28.6747 105.997 28.5911 106.087 28.5131L106.339 28.8307C106.238 28.9978 106.104 29.1873 105.935 29.399C105.779 29.5996 105.599 29.7834 105.398 29.9506C105.207 30.1177 105.011 30.2348 104.809 30.3016ZM101.717 28.8975C101.907 28.8975 102.131 28.8363 102.389 28.7137C102.647 28.58 102.882 28.4184 103.095 28.2289L103.162 26.5908L101.095 27.1759C100.803 27.265 100.658 27.4767 100.658 27.8111C100.658 28.1119 100.753 28.3682 100.943 28.58C101.145 28.7917 101.403 28.8975 101.717 28.8975Z" fill="white"></path><path d="M110.4 30.3016C109.627 30.3016 109.067 30.1456 108.719 29.8336C108.383 29.5104 108.215 28.9867 108.215 28.2624V24.3176C108.215 24.0056 108.148 23.7883 108.014 23.6657C107.89 23.5431 107.644 23.4763 107.274 23.4651L107.173 23.3481L107.257 22.7129C107.571 22.5569 107.873 22.3898 108.165 22.2115C108.456 22.022 108.714 21.8437 108.938 21.6766C109.173 21.4983 109.353 21.3534 109.476 21.242C109.61 21.1306 109.678 21.0749 109.678 21.0749L110.081 21.242C110.081 21.242 110.064 21.359 110.03 21.593C109.997 21.827 109.958 22.1613 109.913 22.5959L112.165 22.5458L112.232 22.5959L112.064 23.5988L109.846 23.5487C109.812 24.0501 109.784 24.6296 109.762 25.2871C109.739 25.9445 109.728 26.6744 109.728 27.4767C109.728 28.0005 109.818 28.3794 109.997 28.6134C110.187 28.8362 110.501 28.9477 110.938 28.9477C111.196 28.9477 111.437 28.9031 111.661 28.814C111.896 28.7137 112.014 28.6635 112.014 28.6635L112.199 29.1483C112.199 29.1483 112.126 29.2096 111.98 29.3321C111.846 29.4436 111.672 29.5773 111.459 29.7333C111.257 29.8782 111.056 30.0063 110.854 30.1177C110.664 30.2403 110.512 30.3016 110.4 30.3016Z" fill="white"></path><path d="M113.612 30.3016L113.712 29.4491C114.049 29.3711 114.289 29.2486 114.435 29.0814C114.581 28.9031 114.654 28.6691 114.654 28.3794V24.4179C114.654 24.0947 114.603 23.8607 114.502 23.7158C114.402 23.571 114.233 23.4985 113.998 23.4985C113.92 23.4985 113.83 23.5097 113.729 23.532C113.64 23.5543 113.595 23.5654 113.595 23.5654L113.662 22.7965C113.998 22.7408 114.329 22.6851 114.654 22.6294C114.979 22.5736 115.276 22.5179 115.544 22.4622C115.813 22.4065 116.026 22.3619 116.183 22.3285C116.351 22.2951 116.435 22.2783 116.435 22.2783L116.553 22.5124C116.497 22.6238 116.441 22.8634 116.385 23.2311C116.34 23.5988 116.301 24.0557 116.267 24.6017C116.234 25.1366 116.206 25.7328 116.183 26.3903C116.172 27.0366 116.166 27.7108 116.166 28.4128C116.166 28.7025 116.206 28.9143 116.284 29.048C116.374 29.1817 116.519 29.2486 116.721 29.2486C116.811 29.2486 116.923 29.243 117.057 29.2318C117.192 29.2207 117.259 29.2151 117.259 29.2151L117.292 29.2987L117.141 30.1512C117.141 30.1512 117.085 30.1456 116.973 30.1345C116.872 30.1345 116.738 30.1289 116.57 30.1177C116.402 30.1177 116.222 30.1122 116.032 30.101C115.841 30.101 115.662 30.101 115.494 30.101C115.236 30.101 114.962 30.1177 114.67 30.1512C114.379 30.1846 114.127 30.218 113.914 30.2515C113.712 30.2849 113.612 30.3016 113.612 30.3016ZM115.292 20.5567C114.967 20.5567 114.721 20.4564 114.553 20.2558C114.396 20.0552 114.317 19.8212 114.317 19.5538C114.317 19.2306 114.424 18.9576 114.637 18.7347C114.85 18.5119 115.124 18.4004 115.46 18.4004C115.774 18.4004 116.015 18.5007 116.183 18.7013C116.351 18.8907 116.435 19.1247 116.435 19.4033C116.435 19.7265 116.329 19.9995 116.116 20.2224C115.914 20.4452 115.64 20.5567 115.292 20.5567Z" fill="white"></path><path d="M122.303 30.3016C121.631 30.3016 121.037 30.1456 120.521 29.8336C120.017 29.5216 119.619 29.0814 119.328 28.5131C119.048 27.9448 118.908 27.2873 118.908 26.5407C118.908 25.7161 119.076 24.9862 119.412 24.351C119.76 23.7047 120.236 23.1977 120.841 22.8299C121.446 22.4622 122.124 22.2783 122.875 22.2783C123.558 22.2783 124.152 22.4343 124.656 22.7464C125.172 23.0584 125.57 23.4985 125.85 24.0669C126.13 24.624 126.27 25.2815 126.27 26.0392C126.27 26.8527 126.096 27.5826 125.749 28.2289C125.413 28.8753 124.942 29.3823 124.337 29.75C123.743 30.1177 123.065 30.3016 122.303 30.3016ZM122.707 29.282C123.267 29.282 123.704 29.0591 124.018 28.6134C124.343 28.1565 124.505 27.5213 124.505 26.7079C124.505 26.0281 124.415 25.4431 124.236 24.9528C124.068 24.4513 123.827 24.0669 123.513 23.7994C123.211 23.532 122.847 23.3983 122.421 23.3983C121.872 23.3983 121.435 23.6267 121.11 24.0836C120.796 24.5405 120.639 25.1756 120.639 25.9891C120.639 26.68 120.723 27.2706 120.891 27.7609C121.059 28.2512 121.3 28.6301 121.614 28.8975C121.928 29.1538 122.292 29.282 122.707 29.282Z" fill="white"></path><path d="M132.789 29.4324C133.092 29.3544 133.31 29.2374 133.445 29.0814C133.579 28.9143 133.646 28.6914 133.646 28.4128L133.713 25.2871C133.713 24.7633 133.607 24.3677 133.394 24.1003C133.181 23.8217 132.867 23.6824 132.453 23.6824C132.218 23.6824 131.977 23.7326 131.73 23.8328C131.495 23.922 131.282 24.0279 131.091 24.1504C130.901 24.2619 130.755 24.3566 130.654 24.4346C130.643 24.7355 130.626 25.0809 130.604 25.4709C130.593 25.861 130.576 26.251 130.554 26.641C130.531 27.031 130.514 27.3876 130.503 27.7108C130.492 28.0228 130.486 28.2512 130.486 28.3961C130.486 28.7081 130.531 28.931 130.621 29.0647C130.71 29.1873 130.856 29.2486 131.058 29.2486C131.147 29.2486 131.254 29.243 131.377 29.2318C131.512 29.2207 131.579 29.2151 131.579 29.2151L131.612 29.282L131.461 30.1512C131.461 30.1512 131.366 30.1456 131.175 30.1345C130.996 30.1233 130.778 30.1122 130.52 30.101C130.273 30.101 130.038 30.101 129.814 30.101C129.556 30.101 129.287 30.1066 129.007 30.1177C128.727 30.14 128.486 30.1567 128.284 30.1679C128.094 30.1902 127.999 30.2013 127.999 30.2013L128.116 29.3488C128.441 29.3043 128.665 29.2151 128.789 29.0814C128.923 28.9365 128.99 28.7081 128.99 28.3961V24.5516C128.99 24.1727 128.929 23.9109 128.805 23.766C128.693 23.6211 128.486 23.5487 128.184 23.5487H127.982L127.915 23.4651L127.982 22.7798C128.43 22.7018 128.856 22.6294 129.259 22.5625C129.674 22.4845 130.01 22.4176 130.268 22.3619C130.537 22.2951 130.671 22.2616 130.671 22.2616L130.789 22.4121C130.789 22.4121 130.761 22.5291 130.705 22.7631C130.66 22.9859 130.626 23.2422 130.604 23.532L130.654 23.5988C130.766 23.5097 130.929 23.3927 131.142 23.2478C131.355 23.0918 131.579 22.9414 131.814 22.7965C132.049 22.6516 132.274 22.5291 132.486 22.4288C132.699 22.3285 132.867 22.2783 132.991 22.2783C133.741 22.2783 134.33 22.4734 134.756 22.8634C135.181 23.2422 135.394 23.766 135.394 24.4346C135.394 24.5906 135.377 24.8413 135.344 25.1868C135.321 25.5211 135.293 25.8944 135.26 26.3067C135.226 26.719 135.193 27.1146 135.159 27.4935C135.137 27.8612 135.125 28.1565 135.125 28.3794C135.125 28.6914 135.17 28.9198 135.26 29.0647C135.349 29.1984 135.495 29.2653 135.697 29.2653C135.786 29.2653 135.898 29.2597 136.033 29.2486C136.179 29.2374 136.251 29.2318 136.251 29.2318L136.285 29.2987L136.134 30.1512C136.134 30.1512 136.078 30.1456 135.966 30.1345C135.865 30.1345 135.725 30.1289 135.546 30.1177C135.377 30.1177 135.198 30.1122 135.008 30.101C134.828 30.101 134.66 30.101 134.503 30.101C134.324 30.101 134.134 30.1066 133.932 30.1177C133.73 30.14 133.534 30.1623 133.344 30.1846C133.153 30.2069 132.996 30.2236 132.873 30.2347C132.761 30.257 132.705 30.2682 132.705 30.2682L132.789 29.4324Z" fill="white"></path><path d="M143.491 30.3016C143.02 30.3016 142.65 30.1902 142.382 29.9673C142.113 29.7444 141.956 29.4157 141.911 28.9811L141.81 28.9477C141.564 29.1928 141.317 29.4157 141.071 29.6163C140.835 29.8057 140.622 29.9562 140.432 30.0676C140.241 30.179 140.084 30.2347 139.961 30.2347C139.535 30.2347 139.154 30.14 138.818 29.9506C138.482 29.75 138.219 29.4826 138.028 29.1483C137.838 28.814 137.743 28.4351 137.743 28.0116C137.743 27.6773 137.827 27.3876 137.995 27.1424C138.163 26.8862 138.387 26.719 138.667 26.641L141.877 25.822L141.894 25.2369C141.894 24.7243 141.765 24.3232 141.508 24.0334C141.261 23.7326 140.902 23.5821 140.432 23.5821C140.118 23.5821 139.782 23.6601 139.423 23.8161C139.076 23.961 138.745 24.156 138.432 24.4012L138.331 24.3343L138.079 23.4985C138.392 23.3203 138.74 23.1364 139.121 22.9469C139.502 22.7575 139.86 22.6015 140.197 22.4789C140.544 22.3452 140.807 22.2783 140.986 22.2783C141.547 22.2783 142.012 22.3731 142.382 22.5625C142.763 22.7408 143.048 22.9971 143.239 23.3314C143.429 23.6546 143.525 24.039 143.525 24.4847C143.525 24.6296 143.508 24.858 143.474 25.1701C143.44 25.4821 143.401 25.8275 143.356 26.2064C143.312 26.5853 143.272 26.953 143.239 27.3096C143.216 27.655 143.205 27.9336 143.205 28.1454C143.205 28.3794 143.261 28.5632 143.373 28.697C143.496 28.8195 143.659 28.8808 143.861 28.8808C144.029 28.8808 144.197 28.8418 144.365 28.7638C144.544 28.6747 144.679 28.5911 144.768 28.5131L145.02 28.8307C144.92 28.9978 144.785 29.1873 144.617 29.399C144.46 29.5996 144.281 29.7834 144.079 29.9506C143.889 30.1177 143.693 30.2348 143.491 30.3016ZM140.398 28.8975C140.589 28.8975 140.813 28.8363 141.071 28.7137C141.328 28.58 141.564 28.4184 141.776 28.2289L141.844 26.5908L139.776 27.1759C139.485 27.265 139.339 27.4767 139.339 27.8111C139.339 28.1119 139.435 28.3682 139.625 28.58C139.827 28.7917 140.084 28.8975 140.398 28.8975Z" fill="white"></path><path d="M145.989 30.2849L146.09 29.4324C146.381 29.3656 146.589 29.2708 146.712 29.1483C146.835 29.0145 146.908 28.8474 146.93 28.6468C146.964 28.4351 146.981 28.1676 146.981 27.8445V19.8546C146.981 19.5649 146.953 19.3588 146.897 19.2362C146.852 19.1025 146.751 19.0189 146.594 18.9855C146.449 18.952 146.23 18.9465 145.939 18.9687L145.871 18.9186L145.956 18.1998C146.437 18.1441 146.919 18.0773 147.401 17.9993C147.894 17.9101 148.381 17.8098 148.863 17.6984L148.964 17.9658C148.919 18.0773 148.869 18.3447 148.813 18.7682C148.768 19.1805 148.723 19.7209 148.678 20.3895C148.645 21.0581 148.611 21.8215 148.578 22.6795C148.544 23.5264 148.516 24.4402 148.494 25.4208C148.482 26.3903 148.477 27.3876 148.477 28.4128C148.477 28.7137 148.516 28.931 148.594 29.0647C148.684 29.1984 148.83 29.2653 149.031 29.2653L149.603 29.2318L149.636 29.3154L149.485 30.1512C149.25 30.14 148.97 30.1289 148.645 30.1177C148.32 30.1066 148.04 30.101 147.804 30.101C147.591 30.101 147.317 30.1177 146.981 30.1512C146.656 30.1846 146.325 30.2292 145.989 30.2849Z" fill="white"></path><path d="M54.6955 48C54.1353 48 53.6478 47.9499 53.2332 47.8496C52.8186 47.7493 52.4937 47.649 52.2584 47.5487C52.0231 47.4484 51.9054 47.3983 51.9054 47.3983L51.8046 47.2144C51.8046 47.2144 51.8158 47.1364 51.8382 46.9804C51.8606 46.8132 51.883 46.6015 51.9054 46.3452C51.939 46.0778 51.967 45.7713 51.9894 45.4259C52.0231 45.0693 52.0399 44.7015 52.0399 44.3227L53.0652 44.2391C53.0652 44.9523 53.1212 45.5039 53.2332 45.8939C53.3453 46.2728 53.547 46.5346 53.8383 46.6795C54.1409 46.8244 54.5667 46.8968 55.1157 46.8968C55.732 46.8968 56.2307 46.7519 56.6117 46.4622C57.0039 46.1725 57.1999 45.7825 57.1999 45.2921C57.1999 44.9467 57.0767 44.6514 56.8302 44.4062C56.5837 44.1611 56.2699 43.9326 55.8889 43.7209C55.5079 43.5092 55.1045 43.2975 54.6787 43.0857C54.2305 42.8629 53.7991 42.6177 53.3845 42.3503C52.9699 42.0828 52.6282 41.7708 52.3592 41.4142C52.1015 41.0576 51.9726 40.6286 51.9726 40.1272C51.9726 39.5031 52.1519 38.9515 52.5105 38.4724C52.8691 37.9932 53.3565 37.6143 53.9728 37.3357C54.6003 37.0572 55.3118 36.9179 56.1074 36.9179C56.6341 36.9179 57.0991 36.9513 57.5025 37.0181C57.9059 37.085 58.2252 37.1574 58.4606 37.2354C58.6959 37.3134 58.8135 37.3525 58.8135 37.3525L58.8808 37.5029C58.8808 37.5029 58.8527 37.631 58.7967 37.8873C58.7519 38.1436 58.7015 38.4891 58.6454 38.9237C58.5894 39.3583 58.539 39.8319 58.4942 40.3445L57.5865 40.428L57.4521 40.3277C57.4521 40.3277 57.4577 40.2609 57.4689 40.1272C57.4913 39.9823 57.5025 39.7984 57.5025 39.5756C57.5025 39.0295 57.3624 38.6507 57.0823 38.4389C56.8134 38.2161 56.3371 38.1046 55.6536 38.1046C55.1045 38.1046 54.6507 38.2439 54.2922 38.5225C53.9336 38.79 53.7543 39.1298 53.7543 39.5421C53.7543 39.8542 53.8607 40.1327 54.0736 40.3779C54.2865 40.6119 54.5611 40.8292 54.8972 41.0298C55.2446 41.2304 55.6144 41.4254 56.0066 41.6148C56.4884 41.8488 56.9646 42.1051 57.4353 42.3837C57.9059 42.6623 58.2925 42.9855 58.595 43.3532C58.9088 43.7098 59.0656 44.1555 59.0656 44.6904C59.0656 45.3479 58.8808 45.9273 58.511 46.4288C58.1524 46.9191 57.6426 47.3035 56.9814 47.5821C56.3315 47.8607 55.5696 48 54.6955 48Z" fill="white"></path><path d="M64.3031 48C63.5747 48 62.9416 47.844 62.4038 47.532C61.8659 47.22 61.4457 46.7854 61.1431 46.2282C60.8518 45.671 60.7061 45.008 60.7061 44.2391C60.7061 43.4256 60.8798 42.7013 61.2272 42.0661C61.5746 41.4198 62.0452 40.9128 62.6391 40.545C63.2442 40.1662 63.9277 39.9767 64.6897 39.9767C65.0706 39.9767 65.4124 40.0046 65.7149 40.0603C66.0287 40.1049 66.2752 40.1606 66.4545 40.2275C66.6338 40.2832 66.7234 40.311 66.7234 40.311L66.7907 40.428C66.7907 40.428 66.7626 40.5395 66.7066 40.7623C66.6618 40.9741 66.6114 41.2638 66.5553 41.6315C66.4993 41.9993 66.4545 42.4116 66.4209 42.8685L65.5637 42.9186V42.3837C65.5637 41.9825 65.4516 41.6705 65.2275 41.4477C65.0034 41.2136 64.7009 41.0966 64.3199 41.0966C63.7148 41.0966 63.2498 41.3195 62.9248 41.7653C62.5998 42.1998 62.4374 42.8239 62.4374 43.6373C62.4374 44.5845 62.6223 45.3256 62.992 45.8605C63.3618 46.3842 63.8773 46.6461 64.5384 46.6461C64.8409 46.6461 65.1323 46.6015 65.4124 46.5124C65.7037 46.4121 65.9334 46.3229 66.1015 46.2449C66.2808 46.1558 66.3705 46.1112 66.3705 46.1112L66.4881 46.1613L66.7234 46.8299C66.7234 46.8299 66.6394 46.8912 66.4713 47.0138C66.3144 47.1252 66.1071 47.259 65.8494 47.415C65.6029 47.571 65.3396 47.7047 65.0594 47.8161C64.7793 47.9387 64.5272 48 64.3031 48Z" fill="white"></path><path d="M68.3505 46.9971C68.6643 46.9637 68.8828 46.8857 69.006 46.7631C69.1293 46.6294 69.1909 46.4065 69.1909 46.0945V37.553C69.1909 37.2299 69.1405 37.0014 69.0397 36.8677C68.9388 36.7228 68.7651 36.6504 68.5186 36.6504H68.1656L68.0816 36.5836L68.1656 35.8982C68.457 35.8648 68.7763 35.8202 69.1237 35.7645C69.4823 35.6977 69.8352 35.6364 70.1826 35.5806C70.53 35.5138 70.8269 35.4525 71.0734 35.3968L71.1743 35.6642C71.1183 35.7422 71.0622 36.032 71.0062 36.5334C70.9502 37.0237 70.8998 37.6812 70.8549 38.5058C70.8213 39.3304 70.7877 40.272 70.7541 41.3307C70.8661 41.2304 71.023 41.1078 71.2247 40.9629C71.4376 40.8069 71.6617 40.6565 71.897 40.5116C72.1436 40.3556 72.3789 40.2275 72.603 40.1272C72.8271 40.0269 73.0064 39.9767 73.1408 39.9767C73.9028 39.9767 74.4911 40.1662 74.9057 40.545C75.3315 40.9128 75.5444 41.4421 75.5444 42.133C75.5444 42.289 75.5276 42.5397 75.494 42.8852C75.4715 43.2195 75.4379 43.5928 75.3931 44.0051C75.3595 44.4174 75.3259 44.813 75.2923 45.1919C75.2699 45.5596 75.2586 45.8549 75.2586 46.0778C75.2586 46.3898 75.2979 46.6182 75.3763 46.7631C75.4659 46.8968 75.6116 46.9637 75.8133 46.9637C75.8805 46.9637 75.9702 46.9637 76.0822 46.9637C76.1943 46.9525 76.2895 46.9414 76.368 46.9302L76.4016 46.9971L76.2671 47.8496C76.0542 47.8384 75.7797 47.8273 75.4435 47.8161C75.1186 47.805 74.844 47.7994 74.6199 47.7994C74.4855 47.7994 74.3174 47.805 74.1157 47.8161C73.914 47.8384 73.7011 47.8607 73.477 47.883C73.2529 47.9053 73.0344 47.9331 72.8215 47.9666L72.9055 47.1308C73.2193 47.0528 73.4434 46.9358 73.5778 46.7798C73.7123 46.6126 73.7795 46.3898 73.7795 46.1112L73.8636 42.9855C73.8636 42.4617 73.7571 42.0661 73.5442 41.7987C73.3313 41.5201 73.0176 41.3808 72.603 41.3808C72.3565 41.3808 72.0539 41.4588 71.6953 41.6148C71.348 41.7708 71.0286 41.9658 70.7373 42.1998C70.7261 42.5676 70.7149 42.952 70.7037 43.3532C70.7037 43.7544 70.6981 44.1834 70.6868 44.6403C70.6868 45.086 70.6868 45.5707 70.6868 46.0945C70.6868 46.4176 70.7317 46.6405 70.8213 46.7631C70.911 46.8857 71.051 46.9469 71.2415 46.9469C71.3088 46.9469 71.3928 46.9469 71.4936 46.9469C71.5945 46.9358 71.6841 46.9302 71.7626 46.9302L71.7962 46.9971L71.6449 47.8496C71.4208 47.8384 71.1463 47.8273 70.8213 47.8161C70.4964 47.805 70.2162 47.7994 69.9809 47.7994C69.7456 47.7994 69.4599 47.7994 69.1237 47.7994C68.7875 47.8106 68.4906 47.8273 68.2329 47.8496L68.3505 46.9971Z" fill="white"></path><path d="M81.3446 48C80.6723 48 80.0784 47.844 79.563 47.532C79.0587 47.22 78.6609 46.7798 78.3696 46.2115C78.0895 45.6432 77.9494 44.9857 77.9494 44.2391C77.9494 43.4145 78.1175 42.6846 78.4536 42.0494C78.801 41.4031 79.2772 40.8961 79.8823 40.5283C80.4874 40.1606 81.1653 39.9767 81.9161 39.9767C82.5996 39.9767 83.1935 40.1327 83.6977 40.4448C84.2132 40.7568 84.611 41.1969 84.8911 41.7653C85.1713 42.3224 85.3113 42.9799 85.3113 43.7376C85.3113 44.5511 85.1376 45.281 84.7903 45.9273C84.4541 46.5736 83.9835 47.0807 83.3784 47.4484C82.7845 47.8161 82.1066 48 81.3446 48ZM81.748 46.9804C82.3083 46.9804 82.7453 46.7575 83.059 46.3118C83.384 45.8549 83.5465 45.2197 83.5465 44.4062C83.5465 43.7265 83.4568 43.1415 83.2775 42.6511C83.1095 42.1497 82.8685 41.7653 82.5548 41.4978C82.2523 41.2304 81.8881 41.0966 81.4623 41.0966C80.9132 41.0966 80.4762 41.3251 80.1512 41.782C79.8375 42.2388 79.6806 42.874 79.6806 43.6875C79.6806 44.3784 79.7647 44.969 79.9327 45.4593C80.1008 45.9496 80.3417 46.3285 80.6555 46.5959C80.9692 46.8522 81.3334 46.9804 81.748 46.9804Z" fill="white"></path><path d="M90.3514 48C89.6791 48 89.0852 47.844 88.5697 47.532C88.0655 47.22 87.6677 46.7798 87.3763 46.2115C87.0962 45.6432 86.9561 44.9857 86.9561 44.2391C86.9561 43.4145 87.1242 42.6846 87.4604 42.0494C87.8078 41.4031 88.284 40.8961 88.8891 40.5283C89.4942 40.1606 90.1721 39.9767 90.9229 39.9767C91.6064 39.9767 92.2003 40.1327 92.7045 40.4448C93.22 40.7568 93.6177 41.1969 93.8979 41.7653C94.178 42.3224 94.3181 42.9799 94.3181 43.7376C94.3181 44.5511 94.1444 45.281 93.797 45.9273C93.4609 46.5736 92.9902 47.0807 92.3852 47.4484C91.7913 47.8161 91.1133 48 90.3514 48ZM90.7548 46.9804C91.315 46.9804 91.7521 46.7575 92.0658 46.3118C92.3908 45.8549 92.5532 45.2197 92.5532 44.4062C92.5532 43.7265 92.4636 43.1415 92.2843 42.6511C92.1162 42.1497 91.8753 41.7653 91.5616 41.4978C91.259 41.2304 90.8948 41.0966 90.469 41.0966C89.92 41.0966 89.483 41.3251 89.158 41.782C88.8443 42.2388 88.6874 42.874 88.6874 43.6875C88.6874 44.3784 88.7714 44.969 88.9395 45.4593C89.1076 45.9496 89.3485 46.3285 89.6622 46.5959C89.976 46.8522 90.3402 46.9804 90.7548 46.9804Z" fill="white"></path><path d="M95.7612 47.9833L95.8621 47.1308C96.1534 47.064 96.3607 46.9692 96.484 46.8467C96.6072 46.7129 96.6801 46.5458 96.7025 46.3452C96.7361 46.1335 96.7529 45.866 96.7529 45.5429V37.553C96.7529 37.2633 96.7249 37.0572 96.6688 36.9346C96.624 36.8008 96.5232 36.7173 96.3663 36.6838C96.2206 36.6504 96.0021 36.6448 95.7108 36.6671L95.6436 36.617L95.7276 35.8982C96.2094 35.8425 96.6913 35.7757 97.1731 35.6977C97.6661 35.6085 98.1536 35.5082 98.6354 35.3968L98.7362 35.6642C98.6914 35.7757 98.641 36.0431 98.585 36.4665C98.5401 36.8789 98.4953 37.4193 98.4505 38.0879C98.4169 38.7565 98.3833 39.5199 98.3497 40.3779C98.316 41.2248 98.288 42.1386 98.2656 43.1192C98.2544 44.0887 98.2488 45.086 98.2488 46.1112C98.2488 46.4121 98.288 46.6294 98.3665 46.7631C98.4561 46.8968 98.6018 46.9637 98.8035 46.9637L99.3749 46.9302L99.4086 47.0138L99.2573 47.8496C99.022 47.8384 98.7418 47.8273 98.4169 47.8161C98.0919 47.805 97.8118 47.7994 97.5765 47.7994C97.3636 47.7994 97.0891 47.8161 96.7529 47.8496C96.4279 47.883 96.0974 47.9276 95.7612 47.9833Z" fill="white"></path></svg> 